<svg width="827" height="400" viewBox="0 0 827 400" fill="none" xmlns="http://www.w3.org/2000/svg">
<mask id="mask0_1948_2365" style="mask-type:alpha" maskUnits="userSpaceOnUse" x="0" y="0" width="827" height="400">
<path d="M0 0H827V400H0V0Z" fill="#FFFADE"/>
</mask>
<g mask="url(#mask0_1948_2365)">
<path opacity="0.7" d="M234.856 132.623C234.257 139.892 239.992 146.125 247.284 146.125H254.07C260.413 146.125 265.744 141.37 266.46 135.066L271.184 93.7115C271.954 86.9643 277.978 82.0771 284.74 82.7074L299.262 84.0693C305.76 84.6763 310.686 90.194 310.57 96.7155L309.698 144.102C309.566 151.44 315.768 157.316 323.091 156.771L345.419 155.114C351.769 154.647 356.75 149.456 356.96 143.09L363.481 -52.1204C363.723 -59.1555 358.073 -65 351.022 -65H262.794C256.304 -65 250.903 -60.0271 250.366 -53.5601L234.864 132.623H234.856Z" fill="#F3E873" fill-opacity="0.5"/>
<path opacity="0.7" d="M357.056 425.493L363.796 444.093C366.169 450.653 373.469 453.992 379.991 451.494L410.863 439.657C417.493 437.112 420.661 429.563 417.843 423.049L410.217 405.454C407.594 399.407 400.73 396.45 394.536 398.683L364.558 409.516C358.076 411.859 354.722 419.01 357.072 425.493H357.056Z" fill="#F3E873" fill-opacity="0.5"/>
<path opacity="0.7" d="M753.095 -61.3346C752.62 -63.4747 750.721 -65 748.526 -65H738.892C734.114 -65 730.612 -60.5174 731.756 -55.8792L761.632 64.6837C762.309 67.4075 760.441 70.1157 757.655 70.4503L687.677 79.0186C683.093 79.3221 679.583 77.7968 678.058 71.9912L679 75.7968C677.941 71.2286 660.003 -6.31393 649.178 -54.4006C647.793 -60.603 642.291 -65 635.933 -65H542.102C536.32 -65 531.65 -60.2995 531.681 -54.5173L533.354 215.551C533.129 220.594 536.335 223.722 541.604 221.885L679.801 176.134C682.151 175.355 684.704 176.546 685.622 178.85L698.891 212.259L723.615 271.326C724.635 273.762 723.436 276.564 720.962 277.505L575.394 332.892C570.772 334.65 568.367 339.756 569.954 344.441L578.647 370.106C579.496 372.62 582.274 373.92 584.749 372.97L816.87 283.941C823.446 281.42 827.182 274.47 825.664 267.591L753.095 -61.3346Z" fill="#F3E873" fill-opacity="0.5"/>
<path opacity="0.7" d="M462.963 216.671L462.628 226.173C462.364 233.784 469.329 239.613 476.777 238.002L505.439 231.808C510.84 230.64 514.684 225.847 514.653 220.321L514.583 207.924C514.544 200.936 508.419 195.542 501.485 196.391L473.422 199.815C467.718 200.508 463.36 205.255 463.158 211.006L462.955 216.679L462.963 216.671Z" fill="#F3E873" fill-opacity="0.5"/>
<path opacity="0.7" d="M514.14 127.93C514.172 133.689 509.985 138.615 504.288 139.495L479.377 143.37C472.155 144.491 465.696 138.763 465.953 131.463L466.28 122.086L472.443 -53.778C472.661 -60.0349 477.805 -65 484.078 -65H501.463C507.868 -65 513.067 -59.8326 513.105 -53.4278L514.14 127.93Z" fill="#F3E873" fill-opacity="0.5"/>
<path opacity="0.7" d="M537.508 347.297L519.197 354.262C512.667 356.745 509.453 364.107 512.06 370.582L518.037 385.415C520.582 391.726 527.718 394.839 534.069 392.395L551.524 385.702C557.773 383.306 561.019 376.395 558.871 370.052L553.75 354.947C551.485 348.254 544.108 344.776 537.501 347.289L537.508 347.297Z" fill="#F3E873" fill-opacity="0.5"/>
<path opacity="0.7" d="M353.972 232.508L354.221 225.162C354.478 217.465 347.769 211.379 340.135 212.376L319.014 215.146C312.889 215.948 308.282 221.107 308.166 227.286L307.177 280.961C307.162 281.607 307.201 282.253 307.294 282.891L308.267 290.004C308.383 290.875 308.594 291.731 308.897 292.556L319.777 322.596C322.096 328.993 329.108 332.347 335.536 330.152L359.349 322.012C366.237 319.654 369.653 311.926 366.758 305.249L355.209 278.603C354.875 277.832 354.618 277.023 354.447 276.198L353.093 269.723C352.89 268.743 352.805 267.746 352.836 266.75L353.661 242.018L353.98 232.516L353.972 232.508Z" fill="#F3E873" fill-opacity="0.5"/>
<path opacity="0.8" d="M219.283 320.899L212.014 408.738C211.26 417.82 220.194 424.622 228.746 421.47L273.821 404.893C280.506 402.434 287.892 406.069 290.024 412.862L306.538 465.471C308.694 472.335 316.188 475.953 322.904 473.377L347.94 463.774C354.29 461.338 357.512 454.272 355.2 447.883L303.114 304.09C300.974 298.175 294.756 294.782 288.615 296.175L228.933 309.771C223.633 310.977 219.719 315.483 219.275 320.907L219.283 320.899Z" fill="#FFEA7D"/>
<path opacity="0.8" d="M404.192 117.082C404.208 121.315 400.877 124.802 396.643 124.973L380.316 125.65C373.063 125.953 367.094 120.023 367.335 112.77L372.876 -52.9531C373.102 -59.6691 378.612 -65 385.336 -65H391.554C398.441 -65 404.021 -59.4201 404.029 -52.5406L404.184 117.082H404.192Z" fill="#FFEA7D"/>
<path opacity="0.8" d="M297.911 276.081L301.086 103.642C301.187 98.0151 296.938 93.2523 291.327 92.7309C285.49 92.1862 280.292 96.4042 279.63 102.225L274.634 145.946C274.011 151.378 269.412 155.487 263.941 155.487H242.874C237.271 155.487 232.61 159.783 232.15 165.363L222.057 287.389C221.458 294.642 228.08 300.385 235.17 298.766L289.537 286.385C294.362 285.288 297.817 281.038 297.911 276.089V276.081Z" fill="#FFEA7D"/>
<path opacity="0.8" d="M309.138 174.351L308.702 197.947C308.616 202.757 312.827 206.523 317.597 205.901L355.022 200.99L355.224 200.967C360.042 200.336 364.275 204.173 364.12 209.037V209.239L363.691 221.745C363.528 226.648 367.839 230.5 372.688 229.8L397.824 226.15C401.708 225.59 404.579 222.251 404.564 218.329L404.276 142.21C404.26 137.743 400.541 134.187 396.081 134.374L373.863 135.292C369.746 135.463 366.462 138.779 366.322 142.895L365.964 153.604L365.886 155.938C365.754 159.954 362.61 163.23 358.602 163.526L356.267 163.697L316.422 166.647C312.367 166.95 309.208 170.289 309.13 174.351H309.138Z" fill="#FFEA7D"/>
<path opacity="0.8" d="M747.896 48.123L722.215 -55.529C720.837 -61.0933 715.841 -65 710.106 -65H671.98C663.98 -65 658.05 -57.5835 659.817 -49.7857C667.054 -17.7383 677.054 25.7801 684.65 58.6602C686.082 64.8705 691.973 69.0028 698.308 68.2324L737.297 63.493C744.729 62.5903 749.702 55.3839 747.896 48.1152V48.123Z" fill="#FFEA7D"/>
<path opacity="0.8" d="M457.284 111.805L463.058 -53.0698C463.291 -59.5913 458.062 -65 451.54 -65H433.789C427.407 -65 422.232 -59.8092 422.263 -53.4278L422.886 111.922C422.909 118.459 428.357 123.665 434.894 123.401L446.248 122.934C452.272 122.685 457.081 117.844 457.291 111.821L457.284 111.805Z" fill="#FFEA7D"/>
<path opacity="0.8" d="M456.042 147.012L456.276 140.351C456.439 135.767 452.665 132.024 448.081 132.21L430.524 132.934C426.299 133.113 422.96 136.6 422.976 140.825L423.248 213.364C423.264 218.15 427.513 221.815 432.252 221.123L447.046 218.975C450.813 218.43 453.646 215.263 453.778 211.457L454.097 202.321V202.15L454.198 199.472C454.33 195.667 457.171 192.5 460.945 191.955L463.84 191.535L507.499 186.204C511.468 185.721 514.441 182.344 514.417 178.344L514.293 156.53C514.269 151.72 509.966 148.055 505.211 148.794L465.117 155.036C460.237 155.798 455.871 151.923 456.042 146.981V147.012Z" fill="#FFEA7D"/>
<path opacity="0.8" d="M680.704 224.337L557.845 271.342C551.588 273.739 548.343 280.649 550.491 286.992L559.954 314.915C562.219 321.607 569.596 325.086 576.203 322.572L701.078 275.062C707.669 272.556 710.868 265.093 708.144 258.587L696.665 231.17C694.066 224.952 687 221.932 680.704 224.337Z" fill="#FFEA7D"/>
<path opacity="0.8" d="M503.866 241.714L478.099 247.287C470.542 248.921 466.277 256.968 469.165 264.143L499.235 338.767C501.772 345.071 508.893 348.176 515.236 345.763L535.361 338.106C541.633 335.716 544.894 328.798 542.738 322.448L518.318 249.925C516.294 243.909 510.068 240.376 503.858 241.714H503.866Z" fill="#FFEA7D"/>
<path opacity="0.8" d="M66.9773 -65H211.253C222.195 -65 230.802 -55.6535 229.899 -44.7505L184.661 502.872C183.812 513.152 174.808 520.802 164.528 519.977L8.22115 507.51C-2.27712 506.67 -10.0127 497.339 -8.89205 486.872L48.3777 -48.2837C49.3893 -57.7858 57.4129 -65 66.9773 -65Z" fill="#FFEA7D"/>
<path opacity="0.8" d="M555.741 262.128L676.662 215.862C683.152 213.379 686.358 206.064 683.798 199.605L682.895 197.34C680.459 191.2 673.65 188.025 667.385 190.103L544.69 230.749C538.122 232.928 534.581 240.041 536.799 246.594L539.476 254.485C541.748 261.186 549.134 264.657 555.749 262.128H555.741Z" fill="#FFEA7D"/>
<path d="M683.11 17.5383H684.316V18.2223C684.316 19.1703 684.13 20.0523 683.758 20.8683C683.386 21.6723 682.858 22.3803 682.174 22.9923C681.502 23.5923 680.71 24.0483 679.798 24.3603L679.078 23.1903C679.882 22.9263 680.584 22.5483 681.184 22.0563C681.784 21.5523 682.252 20.9703 682.588 20.3103C682.936 19.6503 683.11 18.9543 683.11 18.2223V17.5383ZM683.362 17.5383H684.586V18.2223C684.586 18.7263 684.682 19.2123 684.874 19.6803C685.078 20.1483 685.36 20.5863 685.72 20.9943C686.08 21.3903 686.512 21.7383 687.016 22.0383C687.52 22.3383 688.072 22.5783 688.672 22.7583L687.97 23.9283C687.058 23.6523 686.254 23.2383 685.558 22.6863C684.874 22.1223 684.334 21.4623 683.938 20.7063C683.554 19.9383 683.362 19.1103 683.362 18.2223V17.5383ZM679.492 16.7103H688.186V17.9163H679.492V16.7103ZM683.11 14.6763H684.604V17.1423H683.11V14.6763ZM687.682 19.3923H691.354V20.6163H687.682V19.3923ZM690.94 14.7483H692.434V24.6123H690.94V14.7483ZM687.07 25.0443C688.762 25.0443 690.088 25.3083 691.048 25.8363C692.008 26.3523 692.488 27.0783 692.488 28.0143C692.488 28.9503 692.008 29.6823 691.048 30.2103C690.088 30.7383 688.762 31.0023 687.07 31.0023C685.39 31.0023 684.064 30.7383 683.092 30.2103C682.132 29.6823 681.652 28.9503 681.652 28.0143C681.652 27.0783 682.132 26.3523 683.092 25.8363C684.064 25.3083 685.39 25.0443 687.07 25.0443ZM687.07 26.2143C686.254 26.2143 685.552 26.2863 684.964 26.4303C684.376 26.5623 683.92 26.7663 683.596 27.0423C683.284 27.3063 683.128 27.6303 683.128 28.0143C683.128 28.3983 683.284 28.7283 683.596 29.0043C683.92 29.2683 684.376 29.4723 684.964 29.6163C685.552 29.7603 686.254 29.8323 687.07 29.8323C687.898 29.8323 688.6 29.7603 689.176 29.6163C689.764 29.4723 690.214 29.2683 690.526 29.0043C690.85 28.7283 691.012 28.3983 691.012 28.0143C691.012 27.6303 690.85 27.3063 690.526 27.0423C690.214 26.7663 689.764 26.5623 689.176 26.4303C688.6 26.2863 687.898 26.2143 687.07 26.2143ZM707.769 17.2863H710.649V18.5463H707.769V17.2863ZM707.769 20.7063H710.649V21.9663H707.769V20.7063ZM706.743 14.7663H708.237V24.6123H706.743V14.7663ZM696.303 22.4163H697.581C698.565 22.4163 699.471 22.4043 700.299 22.3803C701.139 22.3563 701.949 22.3083 702.729 22.2363C703.521 22.1523 704.337 22.0383 705.177 21.8943L705.321 23.1183C704.457 23.2623 703.623 23.3763 702.819 23.4603C702.027 23.5323 701.205 23.5863 700.353 23.6223C699.513 23.6463 698.589 23.6583 697.581 23.6583H696.303V22.4163ZM696.267 15.7743H703.593V20.1843H697.779V23.2083H696.303V19.0323H702.135V16.9803H696.267V15.7743ZM703.035 25.0803C704.139 25.0803 705.087 25.2003 705.879 25.4403C706.683 25.6803 707.301 26.0163 707.733 26.4483C708.165 26.8803 708.381 27.4143 708.381 28.0503C708.381 28.9863 707.901 29.7123 706.941 30.2283C705.993 30.7443 704.691 31.0023 703.035 31.0023C701.919 31.0023 700.959 30.8883 700.155 30.6603C699.363 30.4323 698.751 30.0963 698.319 29.6523C697.887 29.2083 697.671 28.6743 697.671 28.0503C697.671 27.4143 697.887 26.8803 698.319 26.4483C698.751 26.0163 699.363 25.6803 700.155 25.4403C700.959 25.2003 701.919 25.0803 703.035 25.0803ZM703.035 26.2503C702.219 26.2503 701.517 26.3223 700.929 26.4663C700.353 26.6103 699.909 26.8143 699.597 27.0783C699.285 27.3423 699.129 27.6663 699.129 28.0503C699.129 28.4223 699.285 28.7463 699.597 29.0223C699.909 29.2863 700.353 29.4903 700.929 29.6343C701.517 29.7783 702.219 29.8503 703.035 29.8503C703.839 29.8503 704.535 29.7783 705.123 29.6343C705.711 29.4903 706.155 29.2863 706.455 29.0223C706.767 28.7463 706.923 28.4223 706.923 28.0503C706.923 27.6663 706.767 27.3423 706.455 27.0783C706.155 26.8143 705.711 26.6103 705.123 26.4663C704.535 26.3223 703.839 26.2503 703.035 26.2503ZM724.022 14.7483H725.498V31.0563H724.022V14.7483ZM713.096 25.8723H714.446C715.37 25.8723 716.258 25.8603 717.11 25.8363C717.974 25.8003 718.844 25.7403 719.72 25.6563C720.608 25.5723 721.532 25.4523 722.492 25.2963L722.636 26.5203C721.172 26.7603 719.792 26.9223 718.496 27.0063C717.2 27.0783 715.85 27.1143 714.446 27.1143H713.096V25.8723ZM713.06 16.2603H720.584V22.0743H714.608V26.3403H713.096V20.8683H719.072V17.4843H713.06V16.2603ZM682.661 36.7663H684.155V49.1863H682.661V36.7663ZM679.907 41.0863H683.273V42.3103H679.907V41.0863ZM679.907 44.5063H683.273V45.7123H679.907V44.5063ZM670.781 38.7463H679.907V39.9523H670.781V38.7463ZM675.389 40.8343C676.121 40.8343 676.763 40.9663 677.315 41.2303C677.867 41.4943 678.299 41.8603 678.611 42.3283C678.923 42.7963 679.079 43.3363 679.079 43.9483C679.079 44.5603 678.923 45.1063 678.611 45.5863C678.299 46.0543 677.867 46.4203 677.315 46.6843C676.763 46.9363 676.121 47.0623 675.389 47.0623C674.669 47.0623 674.033 46.9363 673.481 46.6843C672.929 46.4203 672.497 46.0543 672.185 45.5863C671.873 45.1063 671.717 44.5603 671.717 43.9483C671.717 43.3363 671.873 42.7963 672.185 42.3283C672.497 41.8603 672.929 41.4943 673.481 41.2303C674.033 40.9663 674.669 40.8343 675.389 40.8343ZM675.389 42.0223C674.717 42.0223 674.171 42.2023 673.751 42.5623C673.331 42.9103 673.121 43.3723 673.121 43.9483C673.121 44.5363 673.331 45.0103 673.751 45.3703C674.171 45.7183 674.717 45.8923 675.389 45.8923C676.061 45.8923 676.607 45.7183 677.027 45.3703C677.459 45.0103 677.675 44.5363 677.675 43.9483C677.675 43.3723 677.459 42.9103 677.027 42.5623C676.607 42.2023 676.061 42.0223 675.389 42.0223ZM674.669 36.7483H676.145V39.5023H674.669V36.7483ZM673.697 51.4543H684.533V52.6783H673.697V51.4543ZM673.697 48.1063H675.191V52.0303H673.697V48.1063ZM699.706 36.7483H701.128V53.0383H699.706V36.7483ZM696.952 43.2823H700.084V44.5063H696.952V43.2823ZM696.016 37.1083H697.402V52.1923H696.016V37.1083ZM687.898 47.7643H688.96C689.764 47.7643 690.49 47.7583 691.138 47.7463C691.798 47.7223 692.422 47.6743 693.01 47.6023C693.61 47.5303 694.222 47.4283 694.846 47.2963L694.99 48.5383C694.342 48.6703 693.712 48.7723 693.1 48.8443C692.5 48.9163 691.864 48.9643 691.192 48.9883C690.532 49.0123 689.788 49.0243 688.96 49.0243H687.898V47.7643ZM687.898 38.7283H693.946V39.9523H689.392V48.3403H687.898V38.7283ZM708.164 38.1523H709.406V41.0683C709.406 42.0043 709.286 42.9163 709.046 43.8043C708.818 44.6803 708.488 45.5023 708.056 46.2703C707.636 47.0263 707.138 47.6983 706.562 48.2863C705.998 48.8623 705.38 49.3183 704.708 49.6543L703.79 48.4123C704.402 48.1363 704.972 47.7403 705.5 47.2243C706.028 46.7083 706.49 46.1263 706.886 45.4783C707.282 44.8183 707.594 44.1103 707.822 43.3543C708.05 42.5983 708.164 41.8363 708.164 41.0683V38.1523ZM708.416 38.1523H709.658V41.0683C709.658 41.8123 709.766 42.5443 709.982 43.2643C710.21 43.9843 710.522 44.6683 710.918 45.3163C711.326 45.9523 711.788 46.5163 712.304 47.0083C712.832 47.4883 713.396 47.8663 713.996 48.1423L713.096 49.3303C712.436 49.0183 711.824 48.5803 711.26 48.0163C710.696 47.4523 710.198 46.8043 709.766 46.0723C709.346 45.3403 709.016 44.5483 708.776 43.6963C708.536 42.8443 708.416 41.9683 708.416 41.0683V38.1523ZM715.706 36.7483H717.2V53.0563H715.706V36.7483ZM724.453 38.4943H725.677V39.8083C725.677 40.8163 725.485 41.7463 725.101 42.5983C724.729 43.4503 724.201 44.1943 723.517 44.8303C722.845 45.4663 722.047 45.9523 721.123 46.2883L720.367 45.1003C721.183 44.8123 721.897 44.4043 722.509 43.8763C723.121 43.3363 723.595 42.7183 723.931 42.0223C724.279 41.3263 724.453 40.5883 724.453 39.8083V38.4943ZM724.723 38.4943H725.947V39.8083C725.947 40.5163 726.109 41.1883 726.433 41.8243C726.757 42.4603 727.213 43.0183 727.801 43.4983C728.389 43.9783 729.079 44.3563 729.871 44.6323L729.169 45.8023C728.257 45.4903 727.471 45.0403 726.811 44.4523C726.151 43.8643 725.635 43.1743 725.263 42.3823C724.903 41.5783 724.723 40.7203 724.723 39.8083V38.4943ZM720.817 37.9543H729.529V39.1783H720.817V37.9543ZM731.581 36.7483H733.075V46.5583H731.581V36.7483ZM732.661 40.8883H735.469V42.1303H732.661V40.8883ZM727.891 47.0083C728.995 47.0083 729.943 47.1283 730.735 47.3683C731.539 47.5963 732.157 47.9323 732.589 48.3763C733.021 48.8203 733.237 49.3603 733.237 49.9963C733.237 50.6323 733.021 51.1723 732.589 51.6163C732.157 52.0603 731.539 52.4023 730.735 52.6423C729.943 52.8823 728.995 53.0023 727.891 53.0023C726.787 53.0023 725.833 52.8823 725.029 52.6423C724.225 52.4023 723.607 52.0603 723.175 51.6163C722.743 51.1723 722.527 50.6323 722.527 49.9963C722.527 49.3603 722.743 48.8203 723.175 48.3763C723.607 47.9323 724.225 47.5963 725.029 47.3683C725.833 47.1283 726.787 47.0083 727.891 47.0083ZM727.891 48.1963C727.087 48.1963 726.391 48.2683 725.803 48.4123C725.227 48.5563 724.783 48.7603 724.471 49.0243C724.159 49.2883 724.003 49.6123 724.003 49.9963C724.003 50.3803 724.159 50.7103 724.471 50.9863C724.783 51.2503 725.227 51.4543 725.803 51.5983C726.391 51.7423 727.087 51.8143 727.891 51.8143C728.695 51.8143 729.385 51.7423 729.961 51.5983C730.537 51.4543 730.981 51.2503 731.293 50.9863C731.605 50.7103 731.761 50.3803 731.761 49.9963C731.761 49.6123 731.605 49.2883 731.293 49.0243C730.981 48.7603 730.537 48.5563 729.961 48.4123C729.385 48.2683 728.695 48.1963 727.891 48.1963Z" fill="#717272"/>
<path d="M403.099 21.9694H404.305V22.6534C404.305 23.6014 404.119 24.4834 403.747 25.2994C403.375 26.1034 402.847 26.8114 402.163 27.4234C401.491 28.0234 400.699 28.4794 399.787 28.7914L399.067 27.6214C399.871 27.3574 400.573 26.9794 401.173 26.4874C401.773 25.9834 402.241 25.4014 402.577 24.7414C402.925 24.0814 403.099 23.3854 403.099 22.6534V21.9694ZM403.351 21.9694H404.575V22.6534C404.575 23.1574 404.671 23.6434 404.863 24.1114C405.067 24.5794 405.349 25.0174 405.709 25.4254C406.069 25.8214 406.501 26.1694 407.005 26.4694C407.509 26.7694 408.061 27.0094 408.661 27.1894L407.959 28.3594C407.047 28.0834 406.243 27.6694 405.547 27.1174C404.863 26.5534 404.323 25.8934 403.927 25.1374C403.543 24.3694 403.351 23.5414 403.351 22.6534V21.9694ZM399.481 21.1414H408.175V22.3474H399.481V21.1414ZM403.099 19.1074H404.593V21.5734H403.099V19.1074ZM407.671 23.8234H411.343V25.0474H407.671V23.8234ZM410.929 19.1794H412.423V29.0434H410.929V19.1794ZM407.059 29.4754C408.751 29.4754 410.077 29.7394 411.037 30.2674C411.997 30.7834 412.477 31.5094 412.477 32.4454C412.477 33.3814 411.997 34.1134 411.037 34.6414C410.077 35.1694 408.751 35.4334 407.059 35.4334C405.379 35.4334 404.053 35.1694 403.081 34.6414C402.121 34.1134 401.641 33.3814 401.641 32.4454C401.641 31.5094 402.121 30.7834 403.081 30.2674C404.053 29.7394 405.379 29.4754 407.059 29.4754ZM407.059 30.6454C406.243 30.6454 405.541 30.7174 404.953 30.8614C404.365 30.9934 403.909 31.1974 403.585 31.4734C403.273 31.7374 403.117 32.0614 403.117 32.4454C403.117 32.8294 403.273 33.1594 403.585 33.4354C403.909 33.6994 404.365 33.9034 404.953 34.0474C405.541 34.1914 406.243 34.2634 407.059 34.2634C407.887 34.2634 408.589 34.1914 409.165 34.0474C409.753 33.9034 410.203 33.6994 410.515 33.4354C410.839 33.1594 411.001 32.8294 411.001 32.4454C411.001 32.0614 410.839 31.7374 410.515 31.4734C410.203 31.1974 409.753 30.9934 409.165 30.8614C408.589 30.7174 407.887 30.6454 407.059 30.6454ZM427.758 21.7174H430.638V22.9774H427.758V21.7174ZM427.758 25.1374H430.638V26.3974H427.758V25.1374ZM426.732 19.1974H428.226V29.0434H426.732V19.1974ZM416.292 26.8474H417.57C418.554 26.8474 419.46 26.8354 420.288 26.8114C421.128 26.7874 421.938 26.7394 422.718 26.6674C423.51 26.5834 424.326 26.4694 425.166 26.3254L425.31 27.5494C424.446 27.6934 423.612 27.8074 422.808 27.8914C422.016 27.9634 421.194 28.0174 420.342 28.0534C419.502 28.0774 418.578 28.0894 417.57 28.0894H416.292V26.8474ZM416.256 20.2054H423.582V24.6154H417.768V27.6394H416.292V23.4634H422.124V21.4114H416.256V20.2054ZM423.024 29.5114C424.128 29.5114 425.076 29.6314 425.868 29.8714C426.672 30.1114 427.29 30.4474 427.722 30.8794C428.154 31.3114 428.37 31.8454 428.37 32.4814C428.37 33.4174 427.89 34.1434 426.93 34.6594C425.982 35.1754 424.68 35.4334 423.024 35.4334C421.908 35.4334 420.948 35.3194 420.144 35.0914C419.352 34.8634 418.74 34.5274 418.308 34.0834C417.876 33.6394 417.66 33.1054 417.66 32.4814C417.66 31.8454 417.876 31.3114 418.308 30.8794C418.74 30.4474 419.352 30.1114 420.144 29.8714C420.948 29.6314 421.908 29.5114 423.024 29.5114ZM423.024 30.6814C422.208 30.6814 421.506 30.7534 420.918 30.8974C420.342 31.0414 419.898 31.2454 419.586 31.5094C419.274 31.7734 419.118 32.0974 419.118 32.4814C419.118 32.8534 419.274 33.1774 419.586 33.4534C419.898 33.7174 420.342 33.9214 420.918 34.0654C421.506 34.2094 422.208 34.2814 423.024 34.2814C423.828 34.2814 424.524 34.2094 425.112 34.0654C425.7 33.9214 426.144 33.7174 426.444 33.4534C426.756 33.1774 426.912 32.8534 426.912 32.4814C426.912 32.0974 426.756 31.7734 426.444 31.5094C426.144 31.2454 425.7 31.0414 425.112 30.8974C424.524 30.7534 423.828 30.6814 423.024 30.6814ZM444.011 19.1794H445.487V35.4874H444.011V19.1794ZM433.085 30.3034H434.435C435.359 30.3034 436.247 30.2914 437.099 30.2674C437.963 30.2314 438.833 30.1714 439.709 30.0874C440.597 30.0034 441.521 29.8834 442.481 29.7274L442.625 30.9514C441.161 31.1914 439.781 31.3534 438.485 31.4374C437.189 31.5094 435.839 31.5454 434.435 31.5454H433.085V30.3034ZM433.049 20.6914H440.573V26.5054H434.597V30.7714H433.085V25.2994H439.061V21.9154H433.049V20.6914ZM380.799 46.9754H382.275V49.9994H380.799V46.9754ZM374.193 49.2794H388.899V50.5034H374.193V49.2794ZM381.537 51.8174C383.277 51.8174 384.639 52.0634 385.623 52.5554C386.607 53.0474 387.099 53.7374 387.099 54.6254C387.099 55.5254 386.607 56.2154 385.623 56.6954C384.639 57.1874 383.277 57.4334 381.537 57.4334C379.785 57.4334 378.417 57.1874 377.433 56.6954C376.449 56.2154 375.957 55.5254 375.957 54.6254C375.957 53.7374 376.449 53.0474 377.433 52.5554C378.417 52.0634 379.785 51.8174 381.537 51.8174ZM381.537 52.9874C380.253 52.9874 379.251 53.1314 378.531 53.4194C377.823 53.6954 377.469 54.0974 377.469 54.6254C377.469 55.1654 377.823 55.5794 378.531 55.8674C379.251 56.1434 380.253 56.2814 381.537 56.2814C382.809 56.2814 383.805 56.1434 384.525 55.8674C385.245 55.5794 385.605 55.1654 385.605 54.6254C385.605 54.0974 385.245 53.6954 384.525 53.4194C383.805 53.1314 382.809 52.9874 381.537 52.9874ZM380.583 42.5294H381.897V43.0154C381.897 43.5314 381.783 44.0174 381.555 44.4734C381.339 44.9174 381.033 45.3254 380.637 45.6974C380.241 46.0694 379.773 46.3994 379.233 46.6874C378.705 46.9634 378.123 47.1974 377.487 47.3894C376.863 47.5694 376.215 47.7014 375.543 47.7854L375.003 46.5974C375.591 46.5374 376.155 46.4354 376.695 46.2914C377.247 46.1354 377.757 45.9494 378.225 45.7334C378.705 45.5174 379.119 45.2654 379.467 44.9774C379.815 44.6894 380.085 44.3834 380.277 44.0594C380.481 43.7234 380.583 43.3754 380.583 43.0154V42.5294ZM381.195 42.5294H382.509V43.0154C382.509 43.3754 382.605 43.7234 382.797 44.0594C383.001 44.3954 383.277 44.7074 383.625 44.9954C383.985 45.2714 384.399 45.5174 384.867 45.7334C385.335 45.9494 385.845 46.1354 386.397 46.2914C386.949 46.4354 387.513 46.5374 388.089 46.5974L387.549 47.7854C386.877 47.7014 386.229 47.5694 385.605 47.3894C384.981 47.1974 384.399 46.9634 383.859 46.6874C383.331 46.3994 382.863 46.0694 382.455 45.6974C382.059 45.3254 381.747 44.9174 381.519 44.4734C381.303 44.0174 381.195 43.5314 381.195 43.0154V42.5294ZM375.543 41.9354H387.567V43.1414H375.543V41.9354ZM401.894 41.1794H403.388V50.6474H401.894V41.1794ZM402.74 45.3374H405.782V46.5974H402.74V45.3374ZM393.146 51.3674H394.622V53.0774H401.894V51.3674H403.388V57.2534H393.146V51.3674ZM394.622 54.2474V56.0474H401.894V54.2474H394.622ZM390.788 42.8534H400.4V44.0594H390.788V42.8534ZM395.594 44.8154C396.374 44.8154 397.052 44.9354 397.628 45.1754C398.216 45.4034 398.672 45.7334 398.996 46.1654C399.32 46.5854 399.482 47.0834 399.482 47.6594C399.482 48.2354 399.32 48.7394 398.996 49.1714C398.672 49.6034 398.216 49.9394 397.628 50.1794C397.052 50.4074 396.374 50.5214 395.594 50.5214C394.814 50.5214 394.13 50.4074 393.542 50.1794C392.966 49.9394 392.51 49.6034 392.174 49.1714C391.85 48.7394 391.688 48.2354 391.688 47.6594C391.688 47.0834 391.85 46.5854 392.174 46.1654C392.51 45.7334 392.966 45.4034 393.542 45.1754C394.13 44.9354 394.814 44.8154 395.594 44.8154ZM395.594 45.9494C394.85 45.9494 394.25 46.1054 393.794 46.4174C393.35 46.7294 393.128 47.1434 393.128 47.6594C393.128 48.1874 393.35 48.6074 393.794 48.9194C394.25 49.2314 394.85 49.3874 395.594 49.3874C396.326 49.3874 396.92 49.2314 397.376 48.9194C397.832 48.6074 398.06 48.1874 398.06 47.6594C398.06 47.1434 397.832 46.7294 397.376 46.4174C396.932 46.1054 396.338 45.9494 395.594 45.9494ZM394.856 41.0354H396.35V43.5014H394.856V41.0354ZM409.183 48.7934H420.361V49.9994H409.183V48.7934ZM407.311 54.1754H422.071V55.4174H407.311V54.1754ZM413.917 49.3154H415.393V54.6614H413.917V49.3154ZM409.183 42.4754H420.199V43.7174H410.677V49.3334H409.183V42.4754ZM436.271 41.1794H437.711V57.4694H436.271V41.1794ZM433.679 47.6234H436.811V48.8654H433.679V47.6234ZM432.653 41.5214H434.075V56.6414H432.653V41.5214ZM424.445 43.0694H430.655V53.0954H424.445V43.0694ZM429.251 44.2574H425.849V51.9074H429.251V44.2574ZM444.712 42.5834H445.954V45.4994C445.954 46.4354 445.834 47.3474 445.594 48.2354C445.366 49.1114 445.036 49.9334 444.604 50.7014C444.184 51.4574 443.686 52.1294 443.11 52.7174C442.546 53.2934 441.928 53.7494 441.256 54.0854L440.338 52.8434C440.95 52.5674 441.52 52.1714 442.048 51.6554C442.576 51.1394 443.038 50.5574 443.434 49.9094C443.83 49.2494 444.142 48.5414 444.37 47.7854C444.598 47.0294 444.712 46.2674 444.712 45.4994V42.5834ZM444.964 42.5834H446.206V45.4994C446.206 46.2434 446.314 46.9754 446.53 47.6954C446.758 48.4154 447.07 49.0994 447.466 49.7474C447.874 50.3834 448.336 50.9474 448.852 51.4394C449.38 51.9194 449.944 52.2974 450.544 52.5734L449.644 53.7614C448.984 53.4494 448.372 53.0114 447.808 52.4474C447.244 51.8834 446.746 51.2354 446.314 50.5034C445.894 49.7714 445.564 48.9794 445.324 48.1274C445.084 47.2754 444.964 46.3994 444.964 45.4994V42.5834ZM452.254 41.1794H453.748V57.4874H452.254V41.1794ZM461 42.9254H462.224V44.2394C462.224 45.2474 462.032 46.1774 461.648 47.0294C461.276 47.8814 460.748 48.6254 460.064 49.2614C459.392 49.8974 458.594 50.3834 457.67 50.7194L456.914 49.5314C457.73 49.2434 458.444 48.8354 459.056 48.3074C459.668 47.7674 460.142 47.1494 460.478 46.4534C460.826 45.7574 461 45.0194 461 44.2394V42.9254ZM461.27 42.9254H462.494V44.2394C462.494 44.9474 462.656 45.6194 462.98 46.2554C463.304 46.8914 463.76 47.4494 464.348 47.9294C464.936 48.4094 465.626 48.7874 466.418 49.0634L465.716 50.2334C464.804 49.9214 464.018 49.4714 463.358 48.8834C462.698 48.2954 462.182 47.6054 461.81 46.8134C461.45 46.0094 461.27 45.1514 461.27 44.2394V42.9254ZM457.364 42.3854H466.076V43.6094H457.364V42.3854ZM468.128 41.1794H469.622V50.9894H468.128V41.1794ZM469.208 45.3194H472.016V46.5614H469.208V45.3194ZM464.438 51.4394C465.542 51.4394 466.49 51.5594 467.282 51.7994C468.086 52.0274 468.704 52.3634 469.136 52.8074C469.568 53.2514 469.784 53.7914 469.784 54.4274C469.784 55.0634 469.568 55.6034 469.136 56.0474C468.704 56.4914 468.086 56.8334 467.282 57.0734C466.49 57.3134 465.542 57.4334 464.438 57.4334C463.334 57.4334 462.38 57.3134 461.576 57.0734C460.772 56.8334 460.154 56.4914 459.722 56.0474C459.29 55.6034 459.074 55.0634 459.074 54.4274C459.074 53.7914 459.29 53.2514 459.722 52.8074C460.154 52.3634 460.772 52.0274 461.576 51.7994C462.38 51.5594 463.334 51.4394 464.438 51.4394ZM464.438 52.6274C463.634 52.6274 462.938 52.6994 462.35 52.8434C461.774 52.9874 461.33 53.1914 461.018 53.4554C460.706 53.7194 460.55 54.0434 460.55 54.4274C460.55 54.8114 460.706 55.1414 461.018 55.4174C461.33 55.6814 461.774 55.8854 462.35 56.0294C462.938 56.1734 463.634 56.2454 464.438 56.2454C465.242 56.2454 465.932 56.1734 466.508 56.0294C467.084 55.8854 467.528 55.6814 467.84 55.4174C468.152 55.1414 468.308 54.8114 468.308 54.4274C468.308 54.0434 468.152 53.7194 467.84 53.4554C467.528 53.1914 467.084 52.9874 466.508 52.8434C465.932 52.6994 465.242 52.6274 464.438 52.6274Z" fill="#717272"/>
<path d="M398.211 165.618C398.211 167.569 399.899 169.31 402.201 169.995L401.533 171.067C399.723 170.531 398.273 169.345 397.578 167.798C396.893 169.512 395.469 170.856 393.606 171.472L392.938 170.417C395.24 169.644 396.858 167.745 396.858 165.618V165.284H393.324V164.177H396.858V162.19H398.246V164.177H401.744V165.284H398.211V165.618ZM405.84 162.261V171.735H404.451V167.886H401.252V166.743H404.451V162.261H405.84ZM400.654 172.157C403.906 172.157 405.893 173.177 405.893 175.005C405.893 176.815 403.906 177.853 400.654 177.853C397.402 177.853 395.416 176.815 395.416 175.005C395.416 173.177 397.402 172.157 400.654 172.157ZM400.654 173.229C398.264 173.247 396.77 173.897 396.787 175.005C396.77 176.095 398.264 176.763 400.654 176.763C403.063 176.763 404.522 176.095 404.522 175.005C404.522 173.897 403.063 173.247 400.654 173.229ZM423.031 164.722V165.882H420.658V168.009H423.031V169.187H420.658V171.735H419.287V162.278H420.658V164.722H423.031ZM416.193 163.245V167.464H410.498V169.644C413.276 169.644 415.288 169.547 417.723 169.134L417.863 170.294C415.35 170.716 413.258 170.804 410.358 170.804H409.145V166.374H414.84V164.388H409.109V163.245H416.193ZM415.649 172.192C418.83 172.192 420.799 173.247 420.799 175.04C420.799 176.833 418.83 177.853 415.649 177.853C412.414 177.853 410.463 176.833 410.463 175.04C410.463 173.247 412.414 172.192 415.649 172.192ZM415.649 173.282C413.258 173.282 411.799 173.933 411.817 175.04C411.799 176.13 413.258 176.78 415.649 176.78C418.022 176.78 419.463 176.13 419.463 175.04C419.463 173.933 418.022 173.282 415.649 173.282ZM436.901 162.261V177.923H435.529V162.261H436.901ZM432.154 163.72V169.274H426.318V172.966C428.911 172.966 431.223 172.852 434.018 172.403L434.158 173.563C431.276 174.021 428.902 174.126 426.213 174.126H424.912V168.149H430.766V164.862H424.877V163.72H432.154ZM382.171 188.638V189.78H377.355V191.837H383.806V192.997H369.55V191.837H376.001V189.78H371.501V184.577H372.872V188.638H382.171ZM376.669 194.175C380.026 194.175 382.03 195.212 382.048 197.022C382.03 198.833 380.026 199.853 376.669 199.853C373.294 199.853 371.273 198.833 371.273 197.022C371.273 195.212 373.294 194.175 376.669 194.175ZM376.669 195.265C374.155 195.265 372.661 195.897 372.679 197.022C372.661 198.095 374.155 198.763 376.669 198.763C379.148 198.763 380.659 198.095 380.659 197.022C380.659 195.897 379.148 195.265 376.669 195.265ZM392.946 185.72C392.946 187.917 395.829 189.833 398.642 190.22L398.079 191.345C395.653 190.94 393.254 189.596 392.243 187.671C391.241 189.604 388.833 190.94 386.407 191.345L385.845 190.22C388.657 189.833 391.523 187.952 391.523 185.72V184.823H392.946V185.72ZM399.345 193.067V194.228H392.876V199.888H391.523V194.228H385.107V193.067H399.345ZM405.919 187.214C405.901 189.358 407.536 191.345 409.839 192.153L409.136 193.261C407.36 192.619 405.981 191.292 405.286 189.622C404.627 191.494 403.212 192.936 401.366 193.647L400.61 192.54C402.984 191.696 404.548 189.587 404.566 187.161V185.228H405.919V187.214ZM412.88 184.261V189.06H415.235V190.237H412.88V195.81H411.509V184.261H412.88ZM413.601 198.394V199.554H403.124V194.702H404.53V198.394H413.601ZM430.458 190.87V191.995H424.007V193.542H428.63V197.04H419.349V198.622H429.105V199.712H417.978V196.003H427.276V194.614H417.943V193.542H422.636V191.995H416.22V190.87H430.458ZM428.612 184.788V189.552H418.066V184.788H428.612ZM419.437 185.896V188.444H427.241V185.896H419.437ZM437.331 188.462C437.314 191.31 439.265 194.192 441.568 195.229L440.724 196.319C438.948 195.449 437.41 193.612 436.663 191.38C435.934 193.744 434.396 195.713 432.568 196.636L431.689 195.476C434.009 194.403 435.943 191.433 435.96 188.462V185.614H437.331V188.462ZM444.661 184.261V199.923H443.273V184.261H444.661ZM452.624 187.231C452.624 189.271 454.153 191.099 456.456 191.854L455.806 192.944C454.004 192.355 452.642 191.107 451.974 189.534C451.297 191.327 449.856 192.725 447.984 193.401L447.28 192.294C449.618 191.503 451.253 189.481 451.271 187.231V186.563H447.702V185.421H456.14V186.563H452.624V187.231ZM459.55 184.261V188.251H461.905V189.411H459.55V193.7H458.179V184.261H459.55ZM454.54 194.122C457.757 194.122 459.691 195.177 459.691 196.97C459.691 198.798 457.757 199.853 454.54 199.853C451.323 199.853 449.355 198.798 449.355 196.97C449.355 195.177 451.323 194.122 454.54 194.122ZM454.54 195.229C452.185 195.229 450.726 195.88 450.743 196.97C450.726 198.095 452.185 198.745 454.54 198.745C456.913 198.745 458.355 198.095 458.355 196.97C458.355 195.88 456.913 195.229 454.54 195.229Z" fill="#717272"/>
<path d="M606.706 252.193H607.912V252.877C607.912 253.825 607.726 254.707 607.354 255.523C606.982 256.327 606.454 257.035 605.77 257.647C605.098 258.247 604.306 258.703 603.394 259.015L602.674 257.845C603.478 257.581 604.18 257.203 604.78 256.711C605.38 256.207 605.848 255.625 606.184 254.965C606.532 254.305 606.706 253.609 606.706 252.877V252.193ZM606.958 252.193H608.182V252.877C608.182 253.381 608.278 253.867 608.47 254.335C608.674 254.803 608.956 255.241 609.316 255.649C609.676 256.045 610.108 256.393 610.612 256.693C611.116 256.993 611.668 257.233 612.268 257.413L611.566 258.583C610.654 258.307 609.85 257.893 609.154 257.341C608.47 256.777 607.93 256.117 607.534 255.361C607.15 254.593 606.958 253.765 606.958 252.877V252.193ZM603.088 251.365H611.782V252.571H603.088V251.365ZM606.706 249.331H608.2V251.797H606.706V249.331ZM611.278 254.047H614.95V255.271H611.278V254.047ZM614.536 249.403H616.03V259.267H614.536V249.403ZM610.666 259.699C612.358 259.699 613.684 259.963 614.644 260.491C615.604 261.007 616.084 261.733 616.084 262.669C616.084 263.605 615.604 264.337 614.644 264.865C613.684 265.393 612.358 265.657 610.666 265.657C608.986 265.657 607.66 265.393 606.688 264.865C605.728 264.337 605.248 263.605 605.248 262.669C605.248 261.733 605.728 261.007 606.688 260.491C607.66 259.963 608.986 259.699 610.666 259.699ZM610.666 260.869C609.85 260.869 609.148 260.941 608.56 261.085C607.972 261.217 607.516 261.421 607.192 261.697C606.88 261.961 606.724 262.285 606.724 262.669C606.724 263.053 606.88 263.383 607.192 263.659C607.516 263.923 607.972 264.127 608.56 264.271C609.148 264.415 609.85 264.487 610.666 264.487C611.494 264.487 612.196 264.415 612.772 264.271C613.36 264.127 613.81 263.923 614.122 263.659C614.446 263.383 614.608 263.053 614.608 262.669C614.608 262.285 614.446 261.961 614.122 261.697C613.81 261.421 613.36 261.217 612.772 261.085C612.196 260.941 611.494 260.869 610.666 260.869ZM631.365 251.941H634.245V253.201H631.365V251.941ZM631.365 255.361H634.245V256.621H631.365V255.361ZM630.339 249.421H631.833V259.267H630.339V249.421ZM619.899 257.071H621.177C622.161 257.071 623.067 257.059 623.895 257.035C624.735 257.011 625.545 256.963 626.325 256.891C627.117 256.807 627.933 256.693 628.773 256.549L628.917 257.773C628.053 257.917 627.219 258.031 626.415 258.115C625.623 258.187 624.801 258.241 623.949 258.277C623.109 258.301 622.185 258.313 621.177 258.313H619.899V257.071ZM619.863 250.429H627.189V254.839H621.375V257.863H619.899V253.687H625.731V251.635H619.863V250.429ZM626.631 259.735C627.735 259.735 628.683 259.855 629.475 260.095C630.279 260.335 630.897 260.671 631.329 261.103C631.761 261.535 631.977 262.069 631.977 262.705C631.977 263.641 631.497 264.367 630.537 264.883C629.589 265.399 628.287 265.657 626.631 265.657C625.515 265.657 624.555 265.543 623.751 265.315C622.959 265.087 622.347 264.751 621.915 264.307C621.483 263.863 621.267 263.329 621.267 262.705C621.267 262.069 621.483 261.535 621.915 261.103C622.347 260.671 622.959 260.335 623.751 260.095C624.555 259.855 625.515 259.735 626.631 259.735ZM626.631 260.905C625.815 260.905 625.113 260.977 624.525 261.121C623.949 261.265 623.505 261.469 623.193 261.733C622.881 261.997 622.725 262.321 622.725 262.705C622.725 263.077 622.881 263.401 623.193 263.677C623.505 263.941 623.949 264.145 624.525 264.289C625.113 264.433 625.815 264.505 626.631 264.505C627.435 264.505 628.131 264.433 628.719 264.289C629.307 264.145 629.751 263.941 630.051 263.677C630.363 263.401 630.519 263.077 630.519 262.705C630.519 262.321 630.363 261.997 630.051 261.733C629.751 261.469 629.307 261.265 628.719 261.121C628.131 260.977 627.435 260.905 626.631 260.905ZM647.617 249.403H649.093V265.711H647.617V249.403ZM636.691 260.527H638.041C638.965 260.527 639.853 260.515 640.705 260.491C641.569 260.455 642.439 260.395 643.315 260.311C644.203 260.227 645.127 260.107 646.087 259.951L646.231 261.175C644.767 261.415 643.387 261.577 642.091 261.661C640.795 261.733 639.445 261.769 638.041 261.769H636.691V260.527ZM636.655 250.915H644.179V256.729H638.203V260.995H636.691V255.523H642.667V252.139H636.655V250.915ZM602.981 275.903H607.103V277.127H602.981V275.903ZM606.257 271.421H607.751V283.355H606.257V271.421ZM597.365 286.109H608.201V287.333H597.365V286.109ZM597.365 282.293H598.841V286.721H597.365V282.293ZM598.499 273.437H599.723V274.751C599.723 275.735 599.531 276.665 599.147 277.541C598.775 278.405 598.247 279.161 597.563 279.809C596.879 280.445 596.087 280.937 595.187 281.285L594.413 280.079C595.013 279.863 595.559 279.575 596.051 279.215C596.555 278.855 596.993 278.441 597.365 277.973C597.737 277.505 598.019 276.995 598.211 276.443C598.403 275.891 598.499 275.327 598.499 274.751V273.437ZM598.787 273.437H600.011V274.751C600.011 275.447 600.173 276.125 600.497 276.785C600.821 277.445 601.283 278.033 601.883 278.549C602.483 279.053 603.173 279.443 603.953 279.719L603.197 280.907C602.309 280.583 601.535 280.115 600.875 279.503C600.215 278.879 599.699 278.159 599.327 277.343C598.967 276.527 598.787 275.663 598.787 274.751V273.437ZM594.881 272.735H603.575V273.959H594.881V272.735ZM610.899 280.025H625.623V281.231H610.899V280.025ZM617.505 277.919H618.999V280.529H617.505V277.919ZM612.843 277.271H623.895V278.441H612.843V277.271ZM612.843 271.871H623.805V273.059H614.337V277.901H612.843V271.871ZM613.887 274.553H623.373V275.687H613.887V274.553ZM618.261 282.437C620.025 282.437 621.393 282.659 622.365 283.103C623.337 283.547 623.823 284.195 623.823 285.047C623.823 285.899 623.337 286.547 622.365 286.991C621.393 287.435 620.025 287.657 618.261 287.657C616.485 287.657 615.111 287.435 614.139 286.991C613.167 286.547 612.681 285.899 612.681 285.047C612.681 284.195 613.167 283.547 614.139 283.103C615.111 282.659 616.485 282.437 618.261 282.437ZM618.243 283.571C616.947 283.571 615.945 283.697 615.237 283.949C614.529 284.201 614.175 284.567 614.175 285.047C614.175 285.539 614.529 285.911 615.237 286.163C615.945 286.403 616.947 286.523 618.243 286.523C619.563 286.523 620.571 286.403 621.267 286.163C621.975 285.911 622.329 285.539 622.329 285.047C622.329 284.567 621.975 284.201 621.267 283.949C620.571 283.697 619.563 283.571 618.243 283.571ZM631.76 272.807H633.002V275.723C633.002 276.659 632.882 277.571 632.642 278.459C632.414 279.335 632.084 280.157 631.652 280.925C631.232 281.681 630.734 282.353 630.158 282.941C629.594 283.517 628.976 283.973 628.304 284.309L627.386 283.067C627.998 282.791 628.568 282.395 629.096 281.879C629.624 281.363 630.086 280.781 630.482 280.133C630.878 279.473 631.19 278.765 631.418 278.009C631.646 277.253 631.76 276.491 631.76 275.723V272.807ZM632.012 272.807H633.254V275.723C633.254 276.467 633.362 277.199 633.578 277.919C633.806 278.639 634.118 279.323 634.514 279.971C634.922 280.607 635.384 281.171 635.9 281.663C636.428 282.143 636.992 282.521 637.592 282.797L636.692 283.985C636.032 283.673 635.42 283.235 634.856 282.671C634.292 282.107 633.794 281.459 633.362 280.727C632.942 279.995 632.612 279.203 632.372 278.351C632.132 277.499 632.012 276.623 632.012 275.723V272.807ZM639.302 271.403H640.796V287.711H639.302V271.403ZM648.049 273.149H649.273V274.463C649.273 275.471 649.081 276.401 648.697 277.253C648.325 278.105 647.797 278.849 647.113 279.485C646.441 280.121 645.643 280.607 644.719 280.943L643.963 279.755C644.779 279.467 645.493 279.059 646.105 278.531C646.717 277.991 647.191 277.373 647.527 276.677C647.875 275.981 648.049 275.243 648.049 274.463V273.149ZM648.319 273.149H649.543V274.463C649.543 275.171 649.705 275.843 650.029 276.479C650.353 277.115 650.809 277.673 651.397 278.153C651.985 278.633 652.675 279.011 653.467 279.287L652.765 280.457C651.853 280.145 651.067 279.695 650.407 279.107C649.747 278.519 649.231 277.829 648.859 277.037C648.499 276.233 648.319 275.375 648.319 274.463V273.149ZM644.413 272.609H653.125V273.833H644.413V272.609ZM655.177 271.403H656.671V281.213H655.177V271.403ZM656.257 275.543H659.065V276.785H656.257V275.543ZM651.487 281.663C652.591 281.663 653.539 281.783 654.331 282.023C655.135 282.251 655.753 282.587 656.185 283.031C656.617 283.475 656.833 284.015 656.833 284.651C656.833 285.287 656.617 285.827 656.185 286.271C655.753 286.715 655.135 287.057 654.331 287.297C653.539 287.537 652.591 287.657 651.487 287.657C650.383 287.657 649.429 287.537 648.625 287.297C647.821 287.057 647.203 286.715 646.771 286.271C646.339 285.827 646.123 285.287 646.123 284.651C646.123 284.015 646.339 283.475 646.771 283.031C647.203 282.587 647.821 282.251 648.625 282.023C649.429 281.783 650.383 281.663 651.487 281.663ZM651.487 282.851C650.683 282.851 649.987 282.923 649.399 283.067C648.823 283.211 648.379 283.415 648.067 283.679C647.755 283.943 647.599 284.267 647.599 284.651C647.599 285.035 647.755 285.365 648.067 285.641C648.379 285.905 648.823 286.109 649.399 286.253C649.987 286.397 650.683 286.469 651.487 286.469C652.291 286.469 652.981 286.397 653.557 286.253C654.133 286.109 654.577 285.905 654.889 285.641C655.201 285.365 655.357 285.035 655.357 284.651C655.357 284.267 655.201 283.943 654.889 283.679C654.577 283.415 654.133 283.211 653.557 283.067C652.981 282.923 652.291 282.851 651.487 282.851Z" fill="#717272"/>
<path d="M250.116 212.392V221.778H248.728V219.669H244.579V218.526H248.728V216.417H244.737C243.709 218.931 241.292 220.75 237.952 221.743L237.372 220.653C241.151 219.528 243.498 217.419 243.788 214.712H238.163V213.552H245.282C245.282 214.167 245.212 214.756 245.089 215.31H248.728V212.392H250.116ZM245.001 221.937C248.165 221.937 250.204 223.062 250.204 224.925C250.204 226.806 248.165 227.931 245.001 227.931C241.802 227.931 239.78 226.806 239.78 224.925C239.78 223.062 241.802 221.937 245.001 221.937ZM245.001 223.044C242.646 223.026 241.134 223.747 241.134 224.925C241.134 226.103 242.646 226.806 245.001 226.806C247.321 226.806 248.816 226.103 248.833 224.925C248.816 223.747 247.321 223.026 245.001 223.044ZM266.974 220.108V221.216H252.718V220.108H259.169V218.28H254.528V213.112H265.198V214.22H255.882V217.155H265.304V218.28H260.505V220.108H266.974ZM259.837 222.358C263.194 222.358 265.198 223.378 265.216 225.171C265.198 226.981 263.194 227.983 259.837 228.001C256.462 227.983 254.441 226.981 254.441 225.171C254.441 223.378 256.462 222.358 259.837 222.358ZM259.837 223.448C257.323 223.448 255.829 224.099 255.847 225.171C255.829 226.261 257.323 226.894 259.837 226.894C262.316 226.894 263.827 226.261 263.827 225.171C263.827 224.099 262.316 223.448 259.837 223.448ZM276.941 213.358V214.202C276.923 215.187 276.923 216.593 276.519 218.438L275.148 218.315C275.508 216.663 275.552 215.459 275.552 214.519H269.153V213.358H276.941ZM272.915 216.751V219.81C274.655 219.757 276.44 219.634 278.066 219.423L278.153 220.442C274.884 220.97 271.14 221.058 268.327 221.058L268.187 219.897C269.206 219.897 270.349 219.889 271.544 219.862V216.751H272.915ZM280.526 212.374V216.663H282.812V217.823H280.526V222.147H279.12V212.374H280.526ZM275.446 222.341C278.681 222.341 280.65 223.378 280.65 225.118C280.65 226.929 278.681 227.948 275.446 227.948C272.212 227.948 270.243 226.929 270.243 225.118C270.243 223.378 272.212 222.341 275.446 222.341ZM275.446 223.413C273.091 223.413 271.614 224.063 271.632 225.118C271.614 226.226 273.091 226.858 275.446 226.858C277.802 226.858 279.261 226.226 279.261 225.118C279.261 224.063 277.802 223.413 275.446 223.413ZM289.21 214.835C289.192 217.067 290.775 219.036 293.077 219.81L292.304 220.882C290.581 220.231 289.228 218.966 288.56 217.313C287.883 219.186 286.45 220.645 284.569 221.356L283.814 220.231C286.222 219.388 287.821 217.313 287.839 214.888V213.271H289.21V214.835ZM296.786 212.374V221.638H295.398V216.874H291.917V215.731H295.398V212.374H296.786ZM291.601 222.095C294.853 222.095 296.839 223.167 296.839 225.048C296.839 226.911 294.853 227.966 291.601 227.966C288.349 227.966 286.362 226.911 286.362 225.048C286.362 223.167 288.349 222.095 291.601 222.095ZM291.601 223.185C289.21 223.185 287.716 223.888 287.733 225.048C287.716 226.173 289.21 226.858 291.601 226.858C293.991 226.858 295.468 226.173 295.468 225.048C295.468 223.888 293.991 223.185 291.601 223.185ZM257.939 236.905C257.939 239.032 259.556 240.983 261.823 241.757L261.067 242.847C259.336 242.214 257.974 240.922 257.288 239.296C256.62 241.133 255.232 242.583 253.403 243.286L252.665 242.179C255.003 241.3 256.567 239.208 256.585 236.8V235.183H257.939V236.905ZM264.935 234.374V238.452H267.29V239.612H264.935V243.884H263.564V234.374H264.935ZM259.925 244.288C263.142 244.288 265.075 245.325 265.075 247.118C265.075 248.946 263.142 249.966 259.925 249.966C256.708 249.966 254.739 248.946 254.739 247.118C254.739 245.325 256.708 244.288 259.925 244.288ZM259.925 245.396C257.569 245.396 256.11 246.046 256.128 247.118C256.11 248.226 257.569 248.858 259.925 248.876C262.298 248.858 263.739 248.226 263.739 247.118C263.739 246.046 262.298 245.396 259.925 245.396ZM280.368 234.374V240.737H282.9V241.897H280.368V250.001H278.997V234.374H280.368ZM276.325 236.062C276.325 240.491 274.251 244.517 269.153 247.03L268.38 245.94C272.423 243.928 274.62 240.922 274.937 237.222H269.101V236.062H276.325Z" fill="#717272"/>
<path d="M256.883 364.336V373.723H255.494V371.613H251.346V370.471H255.494V368.361H251.504C250.476 370.875 248.059 372.694 244.719 373.688L244.139 372.598C247.918 371.473 250.265 369.363 250.555 366.656H244.93V365.496H252.049C252.049 366.111 251.979 366.7 251.856 367.254H255.494V364.336H256.883ZM251.768 373.881C254.932 373.881 256.971 375.006 256.971 376.869C256.971 378.75 254.932 379.875 251.768 379.875C248.568 379.875 246.547 378.75 246.547 376.869C246.547 375.006 248.568 373.881 251.768 373.881ZM251.768 374.988C249.412 374.971 247.9 375.691 247.9 376.869C247.9 378.047 249.412 378.75 251.768 378.75C254.088 378.75 255.582 378.047 255.6 376.869C255.582 375.691 254.088 374.971 251.768 374.988ZM273.74 372.053V373.16H259.484V372.053H265.936V370.225H261.295V365.057H271.965V366.164H262.649V369.1H272.07V370.225H267.272V372.053H273.74ZM266.604 374.303C269.961 374.303 271.965 375.322 271.983 377.115C271.965 378.926 269.961 379.928 266.604 379.945C263.229 379.928 261.207 378.926 261.207 377.115C261.207 375.322 263.229 374.303 266.604 374.303ZM266.604 375.393C264.09 375.393 262.596 376.043 262.613 377.115C262.596 378.205 264.09 378.838 266.604 378.838C269.082 378.838 270.594 378.205 270.594 377.115C270.594 376.043 269.082 375.393 266.604 375.393ZM280.596 368.52C280.578 371.367 282.529 374.25 284.832 375.287L283.988 376.377C282.213 375.507 280.675 373.67 279.928 371.438C279.198 373.802 277.66 375.771 275.832 376.693L274.953 375.533C277.274 374.461 279.207 371.49 279.225 368.52V365.672H280.596V368.52ZM287.926 364.318V379.98H286.537V364.318H287.926ZM295.889 367.289C295.889 369.328 297.418 371.156 299.721 371.912L299.07 373.002C297.269 372.413 295.906 371.165 295.238 369.592C294.562 371.385 293.12 372.782 291.248 373.459L290.545 372.352C292.883 371.561 294.518 369.539 294.535 367.289V366.621H290.967V365.479H299.404V366.621H295.889V367.289ZM302.815 364.318V368.309H305.17V369.469H302.815V373.758H301.443V364.318H302.815ZM297.805 374.18C301.022 374.18 302.955 375.234 302.955 377.027C302.955 378.855 301.022 379.91 297.805 379.91C294.588 379.91 292.619 378.855 292.619 377.027C292.619 375.234 294.588 374.18 297.805 374.18ZM297.805 375.287C295.449 375.287 293.99 375.938 294.008 377.027C293.99 378.152 295.449 378.803 297.805 378.803C300.178 378.803 301.619 378.152 301.619 377.027C301.619 375.938 300.178 375.287 297.805 375.287Z" fill="#717272"/>
<path d="M84.9884 236.563C84.9884 239.394 86.7989 242.241 89.0665 243.278L88.2403 244.403C86.465 243.489 84.9972 241.617 84.3028 239.394C83.6085 241.731 82.1407 243.735 80.3653 244.685L79.4689 243.577C81.754 242.452 83.5821 239.446 83.5821 236.563V233.716H84.9884V236.563ZM92.4415 232.362V248.024H91.0704V238.831H87.3614V237.706H91.0704V232.362H92.4415ZM102.162 232.556C105.643 232.556 107.682 233.522 107.682 235.263C107.682 237.021 105.643 237.97 102.162 237.987C98.6817 237.97 96.6251 237.021 96.6251 235.263C96.6251 233.522 98.6817 232.556 102.162 232.556ZM102.162 233.61C99.5607 233.628 98.0489 234.226 98.0665 235.263C98.0489 236.335 99.5607 236.915 102.162 236.933C104.746 236.915 106.275 236.335 106.275 235.263C106.275 234.226 104.746 233.628 102.162 233.61ZM109.281 239.024V240.132H102.83V241.608H107.453V245.106H98.172V246.724H107.928V247.813H96.8009V244.087H106.1V242.663H96.7657V241.608H101.459V240.132H95.0431V239.024H109.281ZM125.137 234.788V235.913H122.817V238.11H125.137V239.288H122.817V241.661H121.445V232.362H122.817V234.788H125.137ZM122.817 242.382V247.989H121.445V243.524H112.586V242.382H122.817ZM114.994 233.312C117.367 233.294 119.09 234.823 119.108 236.985C119.09 239.183 117.367 240.694 114.994 240.694C112.621 240.694 110.881 239.183 110.899 236.985C110.881 234.823 112.621 233.294 114.994 233.312ZM114.994 234.489C113.412 234.489 112.234 235.509 112.252 236.985C112.234 238.479 113.412 239.517 114.994 239.499C116.594 239.517 117.754 238.479 117.754 236.985C117.754 235.509 116.594 234.489 114.994 234.489ZM133.574 233.259V237.636H128.195V240.026C131.131 240.026 132.643 239.965 134.488 239.622L134.629 240.765C132.678 241.116 131.096 241.169 127.932 241.151H126.824V236.528H132.203V234.401H126.789V233.259H133.574ZM139.111 232.38V242.048H137.723V239.165H134.629V238.005H137.723V235.966H134.629V234.841H137.723V232.38H139.111ZM133.943 242.312C137.195 242.312 139.164 243.384 139.164 245.212C139.164 247.04 137.195 248.077 133.943 248.077C130.674 248.077 128.688 247.04 128.688 245.212C128.688 243.384 130.674 242.312 133.943 242.312ZM133.943 243.401C131.535 243.401 130.076 244.069 130.094 245.212C130.076 246.337 131.535 246.987 133.943 246.987C136.334 246.987 137.811 246.337 137.811 245.212C137.811 244.069 136.334 243.401 133.943 243.401ZM147.268 236.563C147.25 239.411 149.201 242.294 151.504 243.331L150.66 244.421C148.885 243.551 147.347 241.714 146.6 239.481C145.87 241.846 144.332 243.814 142.504 244.737L141.625 243.577C143.945 242.505 145.879 239.534 145.897 236.563V233.716H147.268V236.563ZM154.598 232.362V248.024H153.209V232.362H154.598Z" fill="#717272"/>
<path d="M406.159 281.357C406.128 281.272 406.113 281.178 406.113 281.085L405.957 239.987C405.949 237.146 403.414 234.967 400.599 235.372L368.165 240.072C365.919 240.399 364.227 242.282 364.157 244.547L363.314 269.808C363.291 270.501 363.424 271.186 363.697 271.824L382.28 314.595L384.004 318.556C385.096 321.062 383.809 323.957 381.22 324.844L377.126 326.245L332.807 341.366C330.327 342.214 329.024 344.923 329.913 347.382L336.183 364.659C337.065 367.079 339.732 368.332 342.165 367.468L387.958 351.195L392.676 349.514C395 348.689 397.566 349.802 398.548 352.059C399.624 354.542 398.377 357.421 395.819 358.324L391.693 359.795L345.401 376.246C342.953 377.118 341.681 379.811 342.57 382.246L349.215 400.558C350.096 402.986 352.779 404.239 355.212 403.368L403.118 386.099L407.813 384.41C410.145 383.569 412.718 384.682 413.708 386.947L415.689 391.515L431.333 427.524C432.331 429.819 434.967 430.925 437.315 430.03L457.201 422.419C457.606 422.263 457.809 421.812 457.661 421.407L406.167 281.349L406.159 281.357Z" fill="#214AEE"/>
<path d="M503.56 404.683C510.08 402.185 513.285 394.838 510.68 388.379L454.921 250.298C454.266 248.68 453.962 246.944 454.024 245.201L454.118 242.469C454.391 234.695 447.544 228.57 439.831 229.691L435.425 230.329C429.264 231.224 424.702 236.508 424.725 242.718L424.858 277.731C424.858 277.824 424.873 277.918 424.905 278.003L471.228 403.484C473.63 409.998 480.906 413.298 487.41 410.831L503.568 404.691L503.56 404.683Z" fill="#214AEE"/>
<path d="M513.042 261.885H364.098C352.018 261.885 342.223 271.659 342.223 283.714C342.223 295.769 352.018 305.543 364.098 305.543H432.101L434.893 314.757L438.566 326.89L442.239 314.757L445.031 305.543H513.034C525.114 305.543 534.909 295.769 534.909 283.714C534.909 271.659 525.114 261.885 513.034 261.885H513.042Z" fill="white" stroke="#214AEE" stroke-width="5" stroke-miterlimit="10"/>
<path d="M377.417 276.084V278.428H373.105C373.128 280.62 374.745 282.846 378.167 283.725L376.785 286.022C374.359 285.413 372.648 284.065 371.675 282.319C370.749 284.311 369.038 285.87 366.519 286.584L365.113 284.264C368.535 283.292 370.105 280.854 370.128 278.428H365.839V276.084H370.128V273.764H373.152V276.084H377.417ZM383.23 273.858V286.749H380.253V281.967H376.785V279.577H380.253V273.858H383.23ZM375.941 287.1C380.488 287.124 383.277 288.553 383.3 291.108C383.277 293.686 380.488 295.186 375.941 295.186C371.417 295.186 368.605 293.686 368.605 291.108C368.605 288.553 371.417 287.124 375.941 287.1ZM375.941 289.397C373.105 289.397 371.581 289.959 371.581 291.108C371.581 292.28 373.105 292.913 375.941 292.913C378.824 292.913 380.324 292.28 380.324 291.108C380.324 289.959 378.824 289.397 375.941 289.397ZM405.8 276.717V279.202H402.917V281.241H405.8V283.702H402.917V286.749H399.917V273.881H402.917V276.717H405.8ZM396.542 275.147V281.499H389.745V283.374C393.273 283.35 395.663 283.209 398.37 282.741L398.699 285.131C395.628 285.694 392.886 285.811 388.574 285.811H386.769V279.249H393.636V277.491H386.745V275.147H396.542ZM395.886 287.077C400.316 287.077 403.128 288.624 403.128 291.178C403.128 293.709 400.316 295.163 395.886 295.163C391.363 295.163 388.574 293.709 388.574 291.178C388.574 288.624 391.363 287.077 395.886 287.077ZM395.886 289.397C393.05 289.397 391.503 289.983 391.527 291.178C391.503 292.327 393.05 292.936 395.886 292.936C398.699 292.936 400.175 292.327 400.175 291.178C400.175 289.983 398.699 289.397 395.886 289.397ZM424.62 273.858V295.233H421.644V273.858H424.62ZM418.011 275.639V283.866H410.98V287.78C414.226 287.768 416.992 287.581 420.12 287.077L420.378 289.491C416.863 290.1 413.699 290.241 409.808 290.241H407.886V281.499H414.964V278.053H407.863V275.639H418.011ZM438.66 281.499V284.053H446.933V286.467H427.48V284.053H435.706V281.499H438.66ZM437.183 287.639C441.824 287.639 444.589 288.975 444.613 291.413C444.589 293.85 441.824 295.186 437.183 295.186C432.495 295.186 429.706 293.85 429.706 291.413C429.706 288.975 432.495 287.639 437.183 287.639ZM437.183 289.913C434.206 289.913 432.73 290.405 432.753 291.413C432.73 292.467 434.206 292.959 437.183 292.959C440.089 292.959 441.589 292.467 441.613 291.413C441.589 290.405 440.089 289.913 437.183 289.913ZM445.175 274.772V277.116H439.386C439.913 278.581 442.093 280.01 446.089 280.374L445.035 282.717C441.015 282.319 438.32 280.831 437.183 278.756C436.046 280.819 433.386 282.319 429.378 282.717L428.324 280.374C432.296 280.01 434.488 278.604 435.027 277.116H429.261V274.772H445.175ZM465.144 273.858V278.991H468.027V281.475H465.144V286.35H462.144V273.858H465.144ZM454.152 287.17V288.788H462.144V287.17H465.144V294.952H451.175V287.17H454.152ZM454.152 292.608H462.144V291.084H454.152V292.608ZM460.878 275.733V278.077H448.222V275.733H453.074V273.717H456.05V275.733H460.878ZM454.55 278.686C457.644 278.686 459.8 280.186 459.8 282.459C459.8 284.733 457.644 286.233 454.55 286.233C451.41 286.233 449.253 284.733 449.253 282.459C449.253 280.186 451.41 278.686 454.55 278.686ZM454.55 280.889C453.12 280.866 452.16 281.452 452.183 282.459C452.16 283.491 453.12 284.053 454.55 284.053C455.98 284.053 456.964 283.491 456.964 282.459C456.964 281.452 455.98 280.866 454.55 280.889ZM477.261 278.686C477.261 282.6 479.042 286.538 482.652 288.061L480.894 290.452C478.456 289.35 476.769 287.229 475.808 284.592C474.835 287.463 473.089 289.784 470.488 290.967L468.683 288.483C472.41 286.913 474.214 282.834 474.238 278.686V275.499H477.261V278.686ZM486.824 273.858V295.233H483.8V273.858H486.824ZM501.824 275.288V277.678H497.581C497.605 280.163 499.093 282.565 502.503 283.561L501.074 285.905C498.718 285.19 497.089 283.76 496.152 281.92C495.203 284.077 493.468 285.788 490.902 286.631L489.378 284.264C492.917 283.151 494.511 280.385 494.558 277.678H490.199V275.288H501.824ZM506.628 273.858V278.803H509.511V281.241H506.628V286.514H503.628V273.858H506.628ZM499.644 286.936C504.074 286.913 506.839 288.436 506.839 291.038C506.839 293.639 504.074 295.186 499.644 295.186C495.12 295.186 492.331 293.639 492.331 291.038C492.331 288.436 495.12 286.913 499.644 286.936ZM499.644 289.256C496.831 289.256 495.308 289.842 495.331 291.038C495.308 292.256 496.831 292.866 499.644 292.866C502.41 292.866 503.886 292.256 503.886 291.038C503.886 289.842 502.41 289.256 499.644 289.256Z" fill="#214AEE"/>
</g>
</svg>
