<svg width="25" height="29" viewBox="0 0 25 29" fill="none" xmlns="http://www.w3.org/2000/svg">
<path d="M24 4.77927C24 6.86651 22.3079 8.55855 20.2207 8.55855C18.1334 8.55855 16.4414 6.86651 16.4414 4.77927C16.4414 2.69204 18.1334 1 20.2207 1C22.3079 1 24 2.69204 24 4.77927Z" stroke="#888888" stroke-width="2"/>
<path d="M8.55855 14.3379C8.55855 16.4251 6.86651 18.1171 4.77927 18.1171C2.69204 18.1171 1 16.4251 1 14.3379C1 12.2506 2.69204 10.5586 4.77927 10.5586C6.86651 10.5586 8.55855 12.2506 8.55855 14.3379Z" stroke="#888888" stroke-width="2"/>
<path d="M24 23.8965C24 25.9837 22.3079 27.6757 20.2207 27.6757C18.1334 27.6757 16.4414 25.9837 16.4414 23.8965C16.4414 21.8092 18.1334 20.1172 20.2207 20.1172C22.3079 20.1172 24 21.8092 24 23.8965Z" stroke="#888888" stroke-width="2"/>
<path d="M17.2808 6.24951L8.08984 12.4993M8.08984 16.5433L17.2808 23.1608" stroke="#888888" stroke-width="2"/>
</svg>
